<svg width="43" height="42" viewBox="0 0 43 42" fill="none" xmlns="http://www.w3.org/2000/svg">
<g clip-path="url(#clip0_14_51)">
<path d="M16.0746 13.4636C18.517 12.6462 19.8192 10.0496 18.9823 7.66402C18.1465 5.27921 15.4886 4.00609 13.0458 4.82361C10.6034 5.64031 9.3011 8.23677 10.1372 10.6224C10.9738 13.0087 13.6318 14.2796 16.0746 13.4636Z" fill="#747167"/>
<path d="M8.5995 20.5707V20.5715C10.0025 18.4539 9.3819 15.6262 7.2151 14.2563C5.04746 12.8871 2.15311 13.4921 0.750149 15.6089V15.6097C-0.65197 17.7265 -0.0314093 20.5536 2.13547 21.9227C4.30302 23.2933 7.19696 22.6876 8.5995 20.5707Z" fill="#747167"/>
<path d="M26.9254 13.4635C29.3682 14.2796 32.0261 13.0087 32.8627 10.6223C33.6988 8.23676 32.3966 5.64022 29.9542 4.82352C27.5114 4.00599 24.8535 5.2792 24.0177 7.66393C23.1808 10.0496 24.483 12.6462 26.9254 13.4635Z" fill="#747167"/>
<path d="M21.5 15.7081C14.1114 15.7081 5.95886 25.7008 8.31899 32.811C10.5977 39.6757 17.7169 36.8465 21.5 36.8465C25.2831 36.8465 32.4023 39.6757 34.6809 32.811C37.0411 25.7008 28.8886 15.7081 21.5 15.7081Z" fill="#747167"/>
<path d="M42.2499 15.6096V15.6088C40.8469 13.492 37.9527 12.887 35.7851 14.2562C33.6182 15.6261 32.9976 18.4538 34.4005 20.5715V20.5706C35.803 22.6875 38.697 23.2933 40.8646 21.9226C43.0314 20.5535 43.6521 17.7265 42.2499 15.6096Z" fill="#747167"/>
</g>
<defs>
<clipPath id="clip0_14_51">
<rect width="43" height="42" fill="white"/>
</clipPath>
</defs>
</svg>
