<svg width="43" height="42" viewBox="0 0 43 42" fill="none" xmlns="http://www.w3.org/2000/svg">
<g clip-path="url(#clip0_16_19)">
<path d="M16.0746 13.4633C18.517 12.6459 19.8192 10.0493 18.9823 7.66373C18.1465 5.27892 15.4886 4.00579 13.0458 4.82332C10.6034 5.64002 9.3011 8.23647 10.1372 10.6221C10.9738 13.0084 13.6318 14.2793 16.0746 13.4633Z" fill="#C3BCB0" fill-opacity="0.95"/>
<path d="M8.59949 20.5706V20.5715C10.0025 18.4538 9.38189 15.6261 7.2151 14.2562C5.04746 12.887 2.15311 13.492 0.750148 15.6088V15.6096C-0.651971 17.7264 -0.0314103 20.5535 2.13547 21.9226C4.30302 23.2933 7.19696 22.6875 8.59949 20.5706Z" fill="#C3BCB0" fill-opacity="0.95"/>
<path d="M26.9254 13.4633C29.3682 14.2794 32.0261 13.0085 32.8627 10.6221C33.6988 8.23655 32.3966 5.64001 29.9542 4.82331C27.5114 4.00579 24.8535 5.27899 24.0177 7.66372C23.1808 10.0494 24.483 12.646 26.9254 13.4633Z" fill="#C3BCB0" fill-opacity="0.95"/>
<path d="M21.5 15.708C14.1114 15.708 5.95886 25.7007 8.31899 32.8109C10.5977 39.6757 17.7169 36.8465 21.5 36.8465C25.2831 36.8465 32.4023 39.6757 34.6809 32.8109C37.0411 25.7007 28.8886 15.708 21.5 15.708Z" fill="#C3BCB0" fill-opacity="0.95"/>
<path d="M42.2499 15.6096V15.6088C40.8469 13.492 37.9527 12.887 35.7851 14.2562C33.6182 15.6261 32.9976 18.4538 34.4005 20.5715V20.5706C35.803 22.6875 38.697 23.2933 40.8646 21.9226C43.0314 20.5535 43.6521 17.7265 42.2499 15.6096Z" fill="#C3BCB0" fill-opacity="0.95"/>
</g>
<defs>
<clipPath id="clip0_16_19">
<rect width="43" height="42" fill="white"/>
</clipPath>
</defs>
</svg>
