<svg width="140" height="140" viewBox="0 0 140 140" fill="none" xmlns="http://www.w3.org/2000/svg">
<g clip-path="url(#clip0_46_124)">
<path d="M52.336 44.8787C60.2878 42.1541 64.5277 33.4987 61.8029 25.5469C59.0817 17.5975 50.4279 13.3538 42.4747 16.0789C34.5226 18.8012 30.2827 27.4561 33.005 35.4082C35.7287 43.3625 44.3828 47.5988 52.336 44.8787Z" fill="#F8F3E1"/>
<path d="M27.9984 68.5693V68.572C32.5664 61.5132 30.5457 52.0875 23.491 47.5211C16.4336 42.9572 7.01014 44.9738 2.44237 52.0299V52.0326C-2.12267 59.0886 -0.10224 68.5121 6.95272 73.0758C14.0099 77.6447 23.432 75.6256 27.9984 68.5693Z" fill="#F8F3E1"/>
<path d="M87.6641 44.8784C95.6173 47.5986 104.271 43.3622 106.995 35.4076C109.717 27.4558 105.477 18.8007 97.5253 16.0783C89.5721 13.3533 80.9184 17.5973 78.1971 25.5464C75.4723 33.4985 79.7122 42.1539 87.6641 44.8784Z" fill="#F8F3E1"/>
<path d="M87.6642 44.8784C95.6174 47.5986 104.271 43.3622 106.995 35.4076C109.717 27.4558 105.477 18.8007 97.5254 16.0783C89.5722 13.3533 80.9184 17.5973 78.1972 25.5464C75.4724 33.4985 79.7123 42.1539 87.6642 44.8784Z" fill="#F8F3E1"/>
<path d="M70 52.3604C45.9441 52.3604 19.401 85.6694 27.0851 109.37C34.504 132.252 57.683 122.822 70 122.822C82.317 122.822 105.496 132.252 112.915 109.37C120.599 85.6694 94.056 52.3604 70 52.3604Z" fill="#F8F3E1"/>
<path d="M70 52.3604C45.9441 52.3604 19.401 85.6694 27.0851 109.37C34.504 132.252 57.6831 122.822 70 122.822C82.317 122.822 105.496 132.252 112.915 109.37C120.599 85.6694 94.056 52.3604 70 52.3604Z" fill="#F8F3E1"/>
<path d="M137.558 52.0321V52.0294C132.99 44.9733 123.567 42.9567 116.51 47.5207C109.455 52.0871 107.434 61.5127 112.002 68.5715V68.5688C116.568 75.6251 125.99 77.6442 133.048 73.0753C140.102 68.5116 142.123 59.0884 137.558 52.0321Z" fill="#F8F3E1"/>
</g>
<defs>
<clipPath id="clip0_46_124">
<rect width="140" height="140" fill="white"/>
</clipPath>
</defs>
</svg>
