<svg width="36" height="32" viewBox="0 0 36 32" fill="none" xmlns="http://www.w3.org/2000/svg">
<path d="M17.8483 10C16.5245 10 15.2305 10.3519 14.1298 11.0112C13.0291 11.6705 12.1712 12.6075 11.6647 13.7039C11.1581 14.8003 11.0255 16.0067 11.2838 17.1705C11.542 18.3344 12.1795 19.4035 13.1155 20.2426C14.0516 21.0818 15.2442 21.6532 16.5425 21.8847C17.8409 22.1162 19.1866 21.9974 20.4096 21.5433C21.6326 21.0892 22.6779 20.3201 23.4134 19.3334C24.1488 18.3467 24.5414 17.1867 24.5414 16C24.5395 14.4092 23.8338 12.884 22.579 11.7592C21.3242 10.6343 19.6228 10.0017 17.8483 10ZM17.8483 20C16.9658 20 16.1031 19.7654 15.3693 19.3259C14.6355 18.8864 14.0636 18.2616 13.7259 17.5307C13.3881 16.7998 13.2998 15.9956 13.4719 15.2196C13.6441 14.4437 14.0691 13.731 14.6931 13.1716C15.3172 12.6122 16.1122 12.2312 16.9778 12.0769C17.8433 11.9225 18.7405 12.0017 19.5558 12.3045C20.3712 12.6072 21.0681 13.1199 21.5584 13.7777C22.0487 14.4355 22.3104 15.2089 22.3104 16C22.3104 17.0609 21.8402 18.0783 21.0034 18.8284C20.1666 19.5786 19.0317 20 17.8483 20ZM24.5414 3H11.1552C9.08488 3.00199 7.10002 3.74012 5.6361 5.05245C4.17218 6.36477 3.34877 8.14409 3.34656 10V22C3.34877 23.8559 4.17218 25.6352 5.6361 26.9476C7.10002 28.2599 9.08488 28.998 11.1552 29H24.5414C26.6117 28.998 28.5965 28.2599 30.0605 26.9476C31.5244 25.6352 32.3478 23.8559 32.35 22V10C32.3478 8.14409 31.5244 6.36477 30.0605 5.05245C28.5965 3.74012 26.6117 3.00199 24.5414 3ZM30.119 22C30.119 23.3261 29.5313 24.5979 28.4853 25.5355C27.4393 26.4732 26.0207 27 24.5414 27H11.1552C9.67591 27 8.25723 26.4732 7.21123 25.5355C6.16523 24.5979 5.57759 23.3261 5.57759 22V10C5.57759 8.67392 6.16523 7.40215 7.21123 6.46447C8.25723 5.52678 9.67591 5 11.1552 5H24.5414C26.0207 5 27.4393 5.52678 28.4853 6.46447C29.5313 7.40215 30.119 8.67392 30.119 10V22ZM26.7724 9.5C26.7724 9.79667 26.6743 10.0867 26.4904 10.3334C26.3066 10.58 26.0452 10.7723 25.7395 10.8858C25.4337 10.9994 25.0973 11.0291 24.7727 10.9712C24.4481 10.9133 24.15 10.7704 23.916 10.5607C23.6819 10.3509 23.5226 10.0836 23.458 9.79264C23.3935 9.50166 23.4266 9.20006 23.5532 8.92597C23.6799 8.65189 23.8944 8.41762 24.1695 8.2528C24.4447 8.08797 24.7682 8 25.0991 8C25.5429 8 25.9685 8.15804 26.2823 8.43934C26.5961 8.72064 26.7724 9.10218 26.7724 9.5Z" fill="#848074"/>
</svg>
