<svg width="145" height="29" viewBox="0 0 145 29" fill="none" xmlns="http://www.w3.org/2000/svg">
<path d="M5.896 15.56C5.896 15.368 5.912 15.224 5.944 15.128C5.992 15.016 6.096 14.96 6.256 14.96C6.4 14.96 6.56 14.992 6.736 15.056C6.928 15.12 7.112 15.192 7.288 15.272C7.736 15.464 8.136 15.608 8.488 15.704C8.856 15.8 9.312 15.848 9.856 15.848C11.84 15.848 13.328 15.376 14.32 14.432C15.328 13.488 15.832 12.256 15.832 10.736C15.832 9.376 15.448 8.184 14.68 7.16C13.912 6.12 12.936 5.304 11.752 4.712C10.584 4.12 9.392 3.768 8.176 3.656L9.544 13.808C9.544 14.08 9.504 14.304 9.424 14.48C9.36 14.656 9.2 14.744 8.944 14.744C8.88 14.776 8.76 14.344 8.584 13.448C8.408 12.552 8.168 11.232 7.864 9.488C7.512 7.456 7.24 5.952 7.048 4.976C6.856 3.984 6.704 3.416 6.592 3.272C5.264 3.272 4.176 3.344 3.328 3.488C2.48 3.616 1.832 3.768 1.384 3.944C0.936 4.12 0.752 4.208 0.832 4.208C0.752 4.176 0.696 4.128 0.664 4.064C0.632 3.984 0.608 3.872 0.592 3.728C0.56 3.584 0.536 3.48 0.52 3.416C0.52 3.032 0.864 2.728 1.552 2.504C2.24 2.28 2.96 2.128 3.712 2.048C4.48 1.968 4.992 1.928 5.248 1.928C6.96 1.928 8.744 2.28 10.6 2.984C12.456 3.672 14.016 4.688 15.28 6.032C16.544 7.376 17.176 8.968 17.176 10.808C17.176 12.184 16.832 13.36 16.144 14.336C15.456 15.296 14.552 16.024 13.432 16.52C12.328 17.016 11.144 17.264 9.88 17.264C8.856 17.264 7.936 17.104 7.12 16.784C6.304 16.464 5.896 16.056 5.896 15.56ZM24.553 17.024C23.609 17.024 22.753 16.816 21.985 16.4C21.233 15.968 20.641 15.376 20.209 14.624C19.793 13.856 19.585 12.984 19.585 12.008C19.585 10.408 20.169 9.216 21.337 8.432C22.521 7.648 23.969 7.256 25.681 7.256C26.465 7.256 27.193 7.448 27.865 7.832C28.553 8.216 29.105 8.768 29.521 9.488C29.937 10.208 30.145 11.04 30.145 11.984C30.145 13.008 29.881 13.904 29.353 14.672C28.825 15.424 28.129 16.008 27.265 16.424C26.417 16.824 25.513 17.024 24.553 17.024ZM24.289 15.656C25.777 15.656 26.905 15.32 27.673 14.648C28.441 13.976 28.825 12.992 28.825 11.696C28.825 10.816 28.521 10.056 27.913 9.416C27.321 8.776 26.489 8.456 25.417 8.456C24.697 8.456 23.969 8.592 23.233 8.864C22.497 9.136 21.889 9.544 21.409 10.088C20.929 10.632 20.689 11.288 20.689 12.056C20.689 12.696 20.849 13.296 21.169 13.856C21.489 14.4 21.921 14.84 22.465 15.176C23.025 15.496 23.633 15.656 24.289 15.656ZM36.0858 28.712C34.7418 28.712 33.6138 28.328 32.7018 27.56C31.8058 26.808 31.2698 25.536 31.0938 23.744C31.0777 23.472 31.1178 23.264 31.2138 23.12C31.3258 22.976 31.4698 22.904 31.6458 22.904C31.8378 22.904 32.0058 22.976 32.1498 23.12C32.2938 23.28 32.3578 23.488 32.3418 23.744C32.3418 24.8 32.7018 25.632 33.4218 26.24C34.1578 26.864 35.0938 27.176 36.2298 27.176C36.8858 27.176 37.4618 26.936 37.9578 26.456C38.4698 25.976 38.8618 25.304 39.1338 24.44C39.4058 23.592 39.5418 22.616 39.5418 21.512C39.5418 19.576 39.5658 17.696 39.6138 15.872L39.6378 14.648C39.0138 15.304 38.4458 15.784 37.9338 16.088C37.4378 16.392 36.8378 16.544 36.1338 16.544C34.9018 16.544 33.9898 16.216 33.3978 15.56C32.8218 14.888 32.5338 13.864 32.5338 12.488C32.5338 11.704 32.7418 10.888 33.1578 10.04C33.5898 9.176 34.1738 8.456 34.9098 7.88C35.6618 7.304 36.5098 7.016 37.4538 7.016C37.7738 7.016 38.0698 7.048 38.3418 7.112C39.3658 7.336 40.0538 8.288 40.4058 9.968C40.7578 11.648 40.9338 13.824 40.9338 16.496C40.9338 17.232 40.9178 18.208 40.8858 19.424L40.8618 21.704C40.8618 22.616 40.7178 23.608 40.4298 24.68C40.1418 25.768 39.6378 26.712 38.9178 27.512C38.1978 28.312 37.2538 28.712 36.0858 28.712ZM35.7738 14.96C36.9578 14.96 37.8538 14.68 38.4618 14.12C39.0698 13.544 39.3738 12.704 39.3738 11.6C39.3738 11.456 39.3578 11.208 39.3258 10.856C39.2458 10.12 39.0538 9.544 38.7498 9.128C38.4618 8.696 38.0058 8.48 37.3818 8.48C36.7258 8.48 36.1258 8.712 35.5818 9.176C35.0378 9.64 34.6138 10.216 34.3098 10.904C34.0058 11.576 33.8538 12.208 33.8538 12.8C33.8538 13.392 34.0298 13.904 34.3818 14.336C34.7338 14.752 35.1978 14.96 35.7738 14.96ZM48.3304 17.264C47.2264 17.264 46.2824 16.96 45.4984 16.352C44.7144 15.744 44.1144 14.912 43.6984 13.856C43.2984 12.8 43.0984 11.6 43.0984 10.256C43.0984 8.752 43.4504 7.328 44.1544 5.984C44.8584 4.624 45.7784 3.536 46.9144 2.72C48.0664 1.888 49.2584 1.472 50.4904 1.472C51.5304 1.472 52.3304 1.704 52.8904 2.168C53.4504 2.632 53.7304 3.176 53.7304 3.8C53.7304 4.168 53.6184 4.504 53.3944 4.808C53.1864 5.112 52.8824 5.344 52.4824 5.504C52.4344 5.408 52.4104 5.256 52.4104 5.048C52.4104 4.856 52.4344 4.664 52.4824 4.472C52.5144 4.216 52.5304 4.032 52.5304 3.92C52.5304 3.76 52.5064 3.624 52.4584 3.512C52.2344 2.952 51.6264 2.672 50.6344 2.672C50.3624 2.672 50.0424 2.696 49.6744 2.744C48.8264 2.856 47.9864 3.28 47.1544 4.016C46.3224 4.736 45.6424 5.64 45.1144 6.728C44.5864 7.816 44.3224 8.928 44.3224 10.064C44.3224 11.056 44.4824 12 44.8024 12.896C45.1384 13.776 45.6184 14.488 46.2424 15.032C46.8664 15.576 47.6104 15.848 48.4744 15.848C49.5944 15.848 50.5224 15.712 51.2584 15.44C52.0104 15.168 52.7464 14.752 53.4664 14.192C53.5464 14.128 53.6344 14.096 53.7304 14.096C53.9064 14.096 54.0264 14.2 54.0904 14.408C54.1704 14.792 53.9144 15.208 53.3224 15.656C52.7304 16.104 51.9624 16.488 51.0184 16.808C50.0744 17.112 49.1784 17.264 48.3304 17.264ZM62.1983 17C60.5343 17 59.0863 16.712 57.8543 16.136C56.6383 15.544 56.0303 14.512 56.0303 13.04C56.0303 12.512 56.1903 12 56.5103 11.504C56.8303 11.008 57.3023 10.608 57.9263 10.304C58.5503 9.984 59.3103 9.824 60.2063 9.824C60.8943 9.824 61.4783 9.856 61.9583 9.92C62.4383 9.984 62.9903 10.16 63.6143 10.448C64.2383 10.736 64.8863 11.192 65.5583 11.816C65.3023 10.712 64.9183 9.744 64.4063 8.912C63.8943 8.08 63.3183 7.44 62.6783 6.992C62.0543 6.528 61.4383 6.296 60.8303 6.296C60.5423 6.296 60.2703 6.352 60.0143 6.464C59.7743 6.56 59.4783 6.704 59.1263 6.896C58.7263 7.152 58.4303 7.28 58.2383 7.28C58.1583 7.28 58.0863 7.256 58.0223 7.208C57.9743 7.144 57.9503 7.072 57.9503 6.992C57.9503 6.352 58.2303 5.856 58.7903 5.504C59.3663 5.152 60.0623 4.992 60.8783 5.024C61.9983 5.088 63.0223 5.568 63.9503 6.464C64.8783 7.344 65.6063 8.44 66.1343 9.752C66.6783 11.064 66.9503 12.352 66.9503 13.616C66.9503 13.824 66.9343 14.12 66.9023 14.504L66.1343 14.456C65.5263 13.224 64.7423 12.352 63.7823 11.84C62.8383 11.312 61.8863 11.048 60.9263 11.048C59.6943 11.048 58.8143 11.232 58.2863 11.6C57.7583 11.968 57.4943 12.504 57.4943 13.208C57.4943 13.944 57.8623 14.536 58.5983 14.984C59.3343 15.432 60.2783 15.656 61.4303 15.656C62.0703 15.656 62.5823 15.624 62.9663 15.56C63.3503 15.48 63.7503 15.376 64.1663 15.248C64.5023 15.136 64.7983 15.056 65.0543 15.008C65.3103 14.96 65.6383 14.936 66.0383 14.936C66.4863 14.936 66.7663 14.968 66.8783 15.032C67.0063 15.096 67.0703 15.24 67.0703 15.464C67.0703 15.624 66.7423 15.824 66.0863 16.064C65.4303 16.304 64.6943 16.52 63.8783 16.712C63.0623 16.904 62.5023 17 62.1983 17ZM74.8953 0.103999C75.6153 0.103999 76.3033 0.287999 76.9593 0.655999C77.6153 1.008 78.1433 1.464 78.5433 2.024C78.9593 2.584 79.1673 3.144 79.1673 3.704H78.6393C78.3993 3.704 78.1833 3.632 77.9913 3.488C77.8153 3.344 77.5833 3.112 77.2953 2.792C76.8793 2.344 76.5033 2.008 76.1673 1.784C75.8473 1.56 75.4313 1.448 74.9193 1.448C74.0393 1.448 73.3033 1.856 72.7113 2.672C72.1193 3.472 71.7673 4.416 71.6553 5.504C71.6073 6 71.5833 6.496 71.5833 6.992C71.5833 7.808 71.6393 8.56 71.7513 9.248C71.9593 9.28 72.4473 9.32 73.2153 9.368C73.9833 9.416 74.6153 9.456 75.1113 9.488C75.2873 9.488 75.6313 9.504 76.1433 9.536C76.3033 9.536 76.4153 9.576 76.4793 9.656C76.5593 9.72 76.5993 9.84 76.5993 10.016C76.5993 10.448 76.1113 10.664 75.1353 10.664C74.2873 10.664 73.2233 10.512 71.9433 10.208C72.1193 10.928 72.3433 11.592 72.6153 12.2C72.8873 12.792 73.2393 13.504 73.6713 14.336C73.9753 14.928 74.1993 15.392 74.3433 15.728C74.4873 16.048 74.5593 16.32 74.5593 16.544C74.5593 16.72 74.5033 16.848 74.3913 16.928C74.2793 16.992 74.1193 17.024 73.9113 17.024C73.4793 17.024 73.0713 16.568 72.6873 15.656C72.3193 14.728 71.8953 13.448 71.4153 11.816L70.9833 10.4C70.6313 10.432 70.1913 10.528 69.6633 10.688C69.6153 10.704 69.4473 10.752 69.1593 10.832C68.8873 10.896 68.6393 10.928 68.4153 10.928C68.1593 10.928 68.0312 10.776 68.0312 10.472C68.0312 10.072 68.2393 9.808 68.6553 9.68C69.0713 9.536 69.4633 9.456 69.8313 9.44C70.1993 9.408 70.4313 9.384 70.5273 9.368C70.4953 8.76 70.4793 8.216 70.4793 7.736C70.4793 5.672 70.7913 3.888 71.4153 2.384C72.0553 0.863999 73.2153 0.103999 74.8953 0.103999ZM85.7881 17C84.7641 17 83.8201 16.8 82.9561 16.4C82.0921 16 81.4041 15.432 80.8921 14.696C80.3801 13.96 80.1241 13.112 80.1241 12.152C80.1241 11.08 80.3241 10.08 80.7241 9.152C81.1241 8.208 81.7081 7.456 82.4761 6.896C83.2601 6.32 84.1721 6.032 85.2121 6.032C86.3001 6.032 87.1241 6.384 87.6841 7.088C88.2441 7.776 88.5081 8.648 88.4761 9.704C88.4761 10.648 88.1001 11.368 87.3481 11.864C86.6121 12.36 85.6681 12.608 84.5161 12.608C84.3401 12.608 84.0761 12.592 83.7241 12.56C83.1481 12.496 82.7401 12.408 82.5001 12.296C82.2601 12.184 82.1401 11.96 82.1401 11.624C82.1401 11.512 82.1721 11.432 82.2361 11.384C82.3001 11.32 82.4281 11.288 82.6201 11.288C82.8281 11.288 83.1961 11.336 83.7241 11.432C84.2361 11.528 84.6921 11.576 85.0921 11.576C86.5641 11.576 87.3001 10.936 87.3001 9.656C87.3001 8.888 87.1561 8.28 86.8681 7.832C86.5961 7.384 86.1081 7.16 85.4041 7.16C84.6361 7.16 83.9481 7.368 83.3401 7.784C82.7321 8.184 82.2601 8.712 81.9241 9.368C81.6041 10.024 81.4441 10.72 81.4441 11.456C81.4441 12.72 81.7961 13.76 82.5001 14.576C83.2041 15.376 84.2921 15.776 85.7641 15.776C85.9401 15.776 86.2361 15.76 86.6521 15.728C86.8281 15.712 87.0441 15.664 87.3001 15.584C87.5561 15.504 87.7401 15.448 87.8521 15.416C88.5401 15.176 89.0441 15.056 89.3641 15.056C89.6041 15.056 89.7881 15.12 89.9161 15.248C89.5161 15.856 88.9161 16.304 88.1161 16.592C87.3321 16.864 86.5561 17 85.7881 17ZM108.21 17.048C106.61 17.048 105.402 16.776 104.586 16.232C103.77 15.672 103.362 14.664 103.362 13.208C103.682 5.208 104.194 1.392 104.898 1.76C105.25 1.776 105.426 2.32 105.426 3.392C105.426 4.048 105.314 5.432 105.09 7.544C104.802 9.976 104.658 11.76 104.658 12.896L104.682 13.592C104.682 13.944 104.786 14.296 104.994 14.648C105.218 15 105.498 15.192 105.834 15.224L110.538 15.632C110.714 15.648 110.802 15.816 110.802 16.136C110.802 16.424 110.73 16.624 110.586 16.736C110.458 16.848 110.226 16.936 109.89 17L108.21 17.048ZM117.429 17C116.405 17 115.461 16.8 114.597 16.4C113.733 16 113.045 15.432 112.533 14.696C112.021 13.96 111.765 13.112 111.765 12.152C111.765 11.08 111.965 10.08 112.365 9.152C112.765 8.208 113.349 7.456 114.117 6.896C114.901 6.32 115.813 6.032 116.853 6.032C117.941 6.032 118.765 6.384 119.325 7.088C119.885 7.776 120.149 8.648 120.117 9.704C120.117 10.648 119.741 11.368 118.989 11.864C118.253 12.36 117.309 12.608 116.157 12.608C115.981 12.608 115.717 12.592 115.365 12.56C114.789 12.496 114.381 12.408 114.141 12.296C113.901 12.184 113.781 11.96 113.781 11.624C113.781 11.512 113.813 11.432 113.877 11.384C113.941 11.32 114.069 11.288 114.261 11.288C114.469 11.288 114.837 11.336 115.365 11.432C115.877 11.528 116.333 11.576 116.733 11.576C118.205 11.576 118.941 10.936 118.941 9.656C118.941 8.888 118.797 8.28 118.509 7.832C118.237 7.384 117.749 7.16 117.045 7.16C116.277 7.16 115.589 7.368 114.981 7.784C114.373 8.184 113.901 8.712 113.565 9.368C113.245 10.024 113.085 10.72 113.085 11.456C113.085 12.72 113.437 13.76 114.141 14.576C114.845 15.376 115.933 15.776 117.405 15.776C117.581 15.776 117.877 15.76 118.293 15.728C118.469 15.712 118.685 15.664 118.941 15.584C119.197 15.504 119.381 15.448 119.493 15.416C120.181 15.176 120.685 15.056 121.005 15.056C121.245 15.056 121.429 15.12 121.557 15.248C121.157 15.856 120.557 16.304 119.757 16.592C118.973 16.864 118.197 17 117.429 17ZM127.491 17.024C126.547 17.024 125.691 16.816 124.923 16.4C124.171 15.968 123.579 15.376 123.146 14.624C122.731 13.856 122.523 12.984 122.523 12.008C122.523 10.408 123.107 9.216 124.275 8.432C125.459 7.648 126.907 7.256 128.618 7.256C129.403 7.256 130.131 7.448 130.803 7.832C131.491 8.216 132.043 8.768 132.459 9.488C132.875 10.208 133.083 11.04 133.083 11.984C133.083 13.008 132.819 13.904 132.291 14.672C131.763 15.424 131.067 16.008 130.203 16.424C129.355 16.824 128.451 17.024 127.491 17.024ZM127.227 15.656C128.715 15.656 129.843 15.32 130.611 14.648C131.379 13.976 131.763 12.992 131.763 11.696C131.763 10.816 131.459 10.056 130.851 9.416C130.259 8.776 129.427 8.456 128.355 8.456C127.635 8.456 126.907 8.592 126.171 8.864C125.435 9.136 124.827 9.544 124.347 10.088C123.867 10.632 123.627 11.288 123.627 12.056C123.627 12.696 123.787 13.296 124.107 13.856C124.427 14.4 124.859 14.84 125.403 15.176C125.963 15.496 126.571 15.656 127.227 15.656ZM137.271 17.096C137.047 17.16 136.919 17.192 136.887 17.192C136.759 17.192 136.623 17.128 136.479 17C135.951 16.216 135.567 14.848 135.327 12.896C135.103 10.944 134.991 9.264 134.991 7.856C134.991 7.632 135.151 7.52 135.471 7.52C135.951 7.52 136.191 7.784 136.191 8.312C136.191 8.456 136.183 8.576 136.167 8.672C136.311 8.336 136.583 7.992 136.983 7.64C137.383 7.288 137.847 6.992 138.375 6.752C138.903 6.512 139.439 6.392 139.983 6.392C141.695 6.392 142.943 7.152 143.727 8.672C144.511 10.176 144.903 12.048 144.903 14.288C144.903 15.056 144.823 15.672 144.663 16.136C144.503 16.584 144.287 16.808 144.015 16.808C143.727 16.808 143.583 16.72 143.583 16.544C143.695 15.696 143.751 14.864 143.751 14.048C143.751 11.984 143.391 10.424 142.671 9.368C141.951 8.296 140.999 7.76 139.815 7.76C139.239 7.76 138.679 7.904 138.135 8.192C137.607 8.48 137.175 8.88 136.839 9.392C136.519 9.904 136.359 10.488 136.359 11.144C136.359 11.88 136.399 12.52 136.479 13.064C136.559 13.608 136.687 14.264 136.863 15.032C137.055 15.784 137.191 16.472 137.271 17.096Z" fill="#484434"/>
</svg>
