<svg width="43" height="42" viewBox="0 0 43 42" fill="none" xmlns="http://www.w3.org/2000/svg">
<g clip-path="url(#clip0_20_65)">
<path d="M16.0746 13.4635C18.517 12.6461 19.8192 10.0495 18.9823 7.66398C18.1465 5.27916 15.4886 4.00604 13.0458 4.82356C10.6034 5.64026 9.3011 8.23672 10.1372 10.6224C10.9738 13.0086 13.6318 14.2795 16.0746 13.4635Z" fill="#EAE5E0"/>
<path d="M8.5995 20.5709V20.5717C10.0025 18.4541 9.3819 15.6264 7.2151 14.2564C5.04746 12.8873 2.15311 13.4922 0.750149 15.6091V15.6099C-0.65197 17.7267 -0.0314093 20.5537 2.13547 21.9228C4.30302 23.2935 7.19696 22.6878 8.5995 20.5709Z" fill="#EAE5E0"/>
<path d="M26.9254 13.4636C29.3682 14.2796 32.0261 13.0087 32.8627 10.6223C33.6988 8.23679 32.3966 5.64026 29.9542 4.82355C27.5114 4.00603 24.8535 5.27924 24.0177 7.66397C23.1808 10.0496 24.483 12.6462 26.9254 13.4636Z" fill="#EAE5E0"/>
<path d="M21.5 15.708C14.1114 15.708 5.95886 25.7007 8.31899 32.8109C10.5977 39.6757 17.7169 36.8465 21.5 36.8465C25.2831 36.8465 32.4023 39.6757 34.6809 32.8109C37.0411 25.7007 28.8886 15.708 21.5 15.708Z" fill="#EAE5E0"/>
<path d="M42.2499 15.6096V15.6088C40.8469 13.492 37.9527 12.887 35.7851 14.2562C33.6182 15.6261 32.9976 18.4538 34.4005 20.5715V20.5706C35.803 22.6875 38.697 23.2933 40.8646 21.9226C43.0314 20.5535 43.6521 17.7265 42.2499 15.6096Z" fill="#EAE5E0"/>
</g>
<defs>
<clipPath id="clip0_20_65">
<rect width="43" height="42" fill="white"/>
</clipPath>
</defs>
</svg>
